<svg width="32" height="33" viewBox="0 0 32 33" fill="none" xmlns="http://www.w3.org/2000/svg">
<path d="M1.01223 18.7123L3.35451 21.0545C3.35803 21.0581 3.36155 21.0616 3.36514 21.0651L6.17253 23.8725C6.17579 23.8758 6.17904 23.8791 6.18236 23.8823L8.98956 26.6895C8.99274 26.6928 8.996 26.696 8.99925 26.6992L11.8072 29.5072C11.8104 29.5104 11.8136 29.5136 11.8168 29.5168L14.16 31.8599C14.2845 31.9844 14.4534 32.0544 14.6295 32.0544C14.8056 32.0544 14.9746 31.9844 15.0991 31.8599L22.6116 24.3476L23.5515 23.4083C24.8457 22.1133 24.8456 20.0069 23.5514 18.7127L21.6727 16.834C21.5473 16.7086 21.4783 16.542 21.4783 16.3647C21.4783 16.1874 21.5473 16.0206 21.6727 15.8952L22.5991 14.9689L30.6436 7.76431C30.644 7.76405 30.6442 7.76371 30.6445 7.76345C30.7127 7.70322 30.7751 7.64485 30.8349 7.58515C32.3884 6.03164 32.3884 3.50388 30.8349 1.95036C30.0835 1.19904 29.0829 0.785196 28.0175 0.785196C26.9522 0.785196 25.9515 1.19897 25.2003 1.95023C25.1395 2.01092 25.0797 2.07487 25.0173 2.14566C25.0172 2.1458 25.0171 2.146 25.0169 2.14619C25.0166 2.14653 25.0163 2.14686 25.016 2.14719L17.9005 10.276L16.9771 11.1995C16.7182 11.4584 16.2971 11.4583 16.0381 11.1994L14.1597 9.32174C13.5326 8.6942 12.6988 8.34862 11.812 8.34862C10.9252 8.34862 10.0914 8.6942 9.46463 9.32141L8.52478 10.2605L1.01229 17.7731C0.752977 18.0324 0.752977 18.4529 1.01223 18.7123ZM26.0152 3.02203C26.0583 2.97322 26.0988 2.92986 26.1392 2.88955C26.6398 2.38898 27.3068 2.11339 28.0174 2.11339C28.7281 2.11339 29.3951 2.38898 29.8956 2.88955C30.9313 3.92522 30.9313 5.61035 29.8957 6.64583C29.8545 6.687 29.8106 6.72804 29.7615 6.77134C29.7609 6.77193 29.7603 6.7726 29.7596 6.77319C29.7589 6.77386 29.7582 6.77432 29.7574 6.77499L22.1672 13.5727L19.2944 10.6999L26.0152 3.02203ZM10.4037 10.2605C10.7799 9.884 11.2801 9.67668 11.812 9.67668C12.3439 9.67668 12.844 9.884 13.2204 10.2607L15.099 12.1386C15.8756 12.9153 17.1394 12.9152 17.9161 12.1386L18.3855 11.6692L21.203 14.4866L20.7336 14.956C20.3573 15.3323 20.1501 15.8326 20.1501 16.3646C20.1501 16.8966 20.3574 17.3969 20.7336 17.7731L22.6122 19.6518C23.3888 20.4283 23.3887 21.6923 22.6124 22.4691L22.1423 22.9388L9.93366 10.7302L10.4037 10.2605ZM8.99428 11.6691L21.203 23.8779L14.6297 30.4513L13.2207 29.0423L16.5076 25.7559C16.767 25.4967 16.767 25.0762 16.5077 24.8168C16.378 24.6871 16.2081 24.6222 16.0381 24.6222C15.8681 24.6222 15.6982 24.6871 15.5686 24.8167L12.2815 28.1032L10.403 26.2247L13.69 22.9383C13.9494 22.6791 13.9494 22.2586 13.6901 21.9992C13.5604 21.8695 13.3904 21.8046 13.2204 21.8046C13.0505 21.8046 12.8806 21.8695 12.7509 21.9991L9.4639 25.2856L7.58606 23.4077L10.873 20.1213C11.1324 19.8621 11.1324 19.4416 10.873 19.1822C10.7434 19.0525 10.5734 18.9877 10.4034 18.9877C10.2335 18.9877 10.0636 19.0525 9.93392 19.1822L6.64694 22.4686L4.76844 20.5901L8.05535 17.3037C8.31474 17.0445 8.31474 16.624 8.05542 16.3646C7.92573 16.2349 7.75579 16.17 7.58579 16.17C7.41586 16.17 7.24593 16.2349 7.1163 16.3645L3.82925 19.651L2.42084 18.2426L8.99428 11.6691Z" fill="#163993"/>
</svg>
