<svg width="35" height="36" viewBox="0 0 35 36" fill="none" xmlns="http://www.w3.org/2000/svg">
<path d="M28.5833 4.35048H25.6632C24.4107 1.75589 22.6199 0.273682 20.7083 0.273682C18.7868 0.273682 16.9872 1.77161 15.7342 4.39183C12.4763 4.80475 9.91667 8.54376 9.91667 13.0865C9.87923 15.2269 10.4986 17.3275 11.6917 19.1062C11.0277 20.0076 10.5388 21.0254 10.2503 22.1067C10.1156 22.6233 10.017 23.1509 9.91725 23.6617C9.80058 24.279 9.68392 24.8679 9.51533 25.4369C4.71508 25.8643 0 27.4962 0 30.2673C0 33.0896 5.26633 35.2177 12.25 35.2177C19.2337 35.2177 24.5 33.0896 24.5 30.2673C24.5 27.8381 20.5211 25.8806 14.7583 25.4217C14.8126 25.0268 14.8855 24.6285 14.959 24.2354L15.0098 23.9651C15.1437 23.2155 15.3362 22.4775 15.5855 21.7578C15.8327 21.7989 16.0827 21.8205 16.3333 21.8225H28.5833C32.1213 21.8225 35 17.9035 35 13.0865C35 8.26945 32.1213 4.35048 28.5833 4.35048ZM20.7083 1.43848C22.0383 1.43848 23.3392 2.4868 24.3547 4.35048H17.0631C18.0775 2.4868 19.3783 1.43848 20.7083 1.43848ZM16.3333 5.51528C19.2284 5.51528 21.5833 8.91184 21.5833 13.0865C21.5833 17.2611 19.2284 20.6577 16.3333 20.6577C16.24 20.6577 16.1467 20.6542 16.0539 20.6466C16.0662 20.6222 16.0784 20.5977 16.0912 20.5732C16.4484 19.9537 16.9826 19.4547 17.6254 19.1399C18.0478 18.8981 18.4232 18.5825 18.7337 18.2081C18.7529 18.1899 18.7708 18.1704 18.7874 18.1499C18.8909 18.0256 18.9898 17.8954 19.0843 17.7591C19.7831 16.7094 20.2146 15.5053 20.3414 14.2513V14.242C20.3921 13.8589 20.4172 13.4729 20.4167 13.0865C20.4167 9.25429 18.3056 6.68008 16.3333 6.68008C14.3611 6.68008 12.25 9.25429 12.25 13.0865C12.2254 14.5653 12.5888 16.0248 13.3041 17.3199C13.2384 17.3794 13.1734 17.4389 13.1092 17.4987C13.0556 17.5488 13.0042 17.5989 12.9517 17.6496C12.81 17.787 12.6735 17.9256 12.5434 18.0672C12.5142 18.098 12.4816 18.1254 12.453 18.1592C11.5346 16.6276 11.0605 14.8714 11.0833 13.0865C11.0833 8.91184 13.4382 5.51528 16.3333 5.51528ZM14.2298 16.5809C13.6761 15.5002 13.3969 14.3002 13.4167 13.0865C13.4167 9.83902 15.1153 7.84488 16.3333 7.84488C17.5513 7.84488 19.25 9.83902 19.25 13.0865C19.2509 13.4285 19.2289 13.7701 19.1841 14.1092C19.1701 14.2309 19.1403 14.345 19.1211 14.4639C18.9373 14.5256 18.7582 14.5862 18.5605 14.6502C17.0284 15.074 15.5686 15.7248 14.2298 16.5809ZM23.3333 30.2673C23.3333 32.0576 18.7833 34.0529 12.25 34.0529C5.71667 34.0529 1.16667 32.0576 1.16667 30.2673C1.16667 28.8619 4.08742 27.1922 9.03058 26.6517C8.99442 26.7187 8.96292 26.7904 8.92442 26.855C8.46047 27.7632 7.49697 28.3058 6.4785 28.2324C6.32436 28.2141 6.16936 28.2587 6.04858 28.3561C5.92781 28.4534 5.85146 28.5953 5.83683 28.7495C5.8028 29.0692 6.03466 29.356 6.35483 29.3902C6.48443 29.4044 6.61471 29.4114 6.74508 29.4112C8.08549 29.3857 9.30565 28.6335 9.92892 27.4485C10.167 27.0441 10.3615 26.6158 10.5093 26.1707V26.1666C10.7473 25.4192 10.9319 24.6559 11.0617 23.8824C11.1597 23.3676 11.2525 22.8819 11.3779 22.4025C11.6611 21.3323 12.1671 20.3337 12.8631 19.4719C13.3295 18.8894 13.8556 18.3571 14.4328 17.8837C15.7424 16.9288 17.2173 16.2233 18.7833 15.8028C18.7705 15.8372 18.7629 15.8762 18.7495 15.91C18.7361 15.9437 18.7168 15.9763 18.7022 16.0119C18.6107 16.2437 18.5048 16.4695 18.3849 16.688C18.3301 16.7853 18.2624 16.8668 18.2023 16.9583C18.1137 17.0946 18.0273 17.2372 17.9317 17.3595L17.9247 17.3665L17.9182 17.3735C17.9064 17.3848 17.8951 17.3967 17.8844 17.4091C17.6558 17.6955 17.3759 17.937 17.059 18.1213C16.2141 18.5445 15.5163 19.2118 15.0564 20.0363C14.9217 20.2937 14.7933 20.5738 14.6732 20.8691C14.3064 21.8004 14.0356 22.7665 13.8647 23.7526L13.8145 24.0205C13.4812 25.2815 13.4375 26.6015 13.6867 27.8818C13.9288 28.8399 14.6339 29.6143 15.5662 29.9458C15.8723 30.0474 16.2029 29.8821 16.3048 29.5766C16.4066 29.271 16.241 28.9409 15.9349 28.8392C15.375 28.6267 14.9553 28.1532 14.812 27.5725C14.7278 27.2491 14.6843 26.9166 14.6825 26.5824C20.0381 27.0163 23.3333 28.7961 23.3333 30.2673ZM28.5833 20.6577H19.5207C21.4474 19.1487 22.75 16.3235 22.75 13.0865C22.75 9.8495 21.4474 7.02428 19.5207 5.51528H24.9042C25.6587 7.41368 26.0956 9.42293 26.1975 11.4627C25.3986 11.7691 24.9371 12.6057 25.1049 13.4436C25.2727 14.2815 26.0209 14.8766 26.8764 14.8527C27.7318 14.8288 28.4455 14.1928 28.5661 13.3468C28.6867 12.5009 28.179 11.6914 27.3642 11.4301C27.2622 9.40977 26.8577 7.41603 26.1642 5.51528H28.5833C31.4784 5.51528 33.8333 8.91184 33.8333 13.0865C33.8333 17.2611 31.4784 20.6577 28.5833 20.6577ZM26.8333 12.5041C27.1555 12.5041 27.4167 12.7648 27.4167 13.0865C27.4167 13.4081 27.1555 13.6689 26.8333 13.6689C26.5112 13.6689 26.25 13.4081 26.25 13.0865C26.25 12.7648 26.5112 12.5041 26.8333 12.5041Z" fill="#163993"/>
</svg>
